<svg height="512pt" preserveAspectRatio="xMidYMid meet" viewBox="0 0 512 512" width="512pt" xmlns="http://www.w3.org/2000/svg"><path d="m850 5102c-60-29-63-46-63-336 0-291 4-321 56-351 30-18 56-19 410-20 370 0 378 0 382-20 2-11 3-663 1-1450-3-1553-1-1494-58-1650-76-210-252-347-513-399-58-12-71-14-130-21-33-4-69-9-80-12-11-2-96-6-190-9-309-9-322-22-290-284 13-102 18-147 30-260 31-288 28-285 260-285 171 0 312 9 428 26 40 5 90 12 112 15 33 5 196 39 279 59 34 8 180 57 211 71 129 56 174 78 228 110 421 253 640 660 672 1244 2 36 4 470 4 965l1 900 39-97c60-146 186-393 387-756 13-23 24-45 24-47 0-3-80-5-178-5h-178l3-217c2-120 4-303 6-408l3-190h334 333l45-85c24-47 100-193 168-325 67-132 138-260 156-284 54-72 53-72 537-69l423 3 29 35c17 19 29 46 29 62 0 24-63 155-150 313-36 66-95 177-160 300-29 55-87 165-130 245-42 80-99 186-125 235-26 50-62 117-80 150s-56 105-85 160-65 123-80 150c-15 28-51 95-80 150s-65 123-80 150c-15 28-53 100-85 160-32 61-74 139-93 175s-51 97-72 135c-21 39-60 113-87 165-28 52-87 165-133 250-45 85-103 193-127 240-63 118-130 244-168 315-18 33-56 105-85 160s-63 118-75 140-53 99-90 170c-90 172-155 286-172 303-39 40-87 42-918 42-742 0-803-1-835-18z" transform="matrix(.1 0 0 -.1 0 512)"/></svg>