<svg height="18" viewBox="0 0 19 18" width="19" xmlns="http://www.w3.org/2000/svg"><path d="m15.342 15.341h-2.706v-4.695c0-1.385-.589-1.813-1.349-1.813-.803 0-1.59.604-1.59 1.847v4.661h-2.707v-8.597h2.603v1.191h.035c.261-.529 1.176-1.432 2.572-1.432 1.51 0 3.142.895 3.142 3.521zm-11.33-9.794c-.862 0-1.56-.656-1.56-1.554 0-.897.698-1.554 1.56-1.554s1.56.657 1.56 1.554c0 .898-.698 1.554-1.56 1.554zm-1.353 9.788h2.706v-8.597h-2.706zm14.013-15.335h-15.343c-.734 0-1.329.595-1.329 1.329v15.342c0 .734.595 1.329 1.329 1.329h15.343c.734 0 1.328-.595 1.328-1.329v-15.342c0-.734-.594-1.329-1.328-1.329z" fill="#fff" fill-rule="evenodd"/></svg>