<svg height="200" viewBox="0 0 247 200" width="247" xmlns="http://www.w3.org/2000/svg" xmlns:xlink="http://www.w3.org/1999/xlink"><mask id="a" fill="#fff"><path d="m0 0h246.138v200h-246.138z" fill="#fff" fill-rule="evenodd"/></mask><path d="m220.943 49.787c.148 2.166.148 4.342.148 6.527 0 66.734-50.803 143.686-143.686 143.686v-.039c-27.44.036-54.311-7.825-77.405-22.646 3.989.478 8.003.722 12.021.729 22.744.023 44.834-7.606 62.716-21.659-21.605-.407-40.564-14.499-47.179-35.071 7.567 1.458 15.367 1.161 22.802-.866-23.563-4.76-40.508-25.465-40.514-49.503 0-.217 0-.434 0-.64 7.022 3.914 14.883 6.082 22.92 6.321-22.192-14.819-29.038-44.338-15.635-67.413 25.642 31.549 63.473 50.727 104.077 52.762-4.071-17.537 1.494-35.916 14.609-48.25 20.336-19.125 52.326-18.143 71.451 2.193 11.309-2.23 22.153-6.375 32.067-12.257-3.77 11.694-11.66 21.62-22.202 27.931 10.011-1.182 19.788-3.861 29.005-7.945-6.781 10.14-15.312 18.991-25.195 26.14" fill="#fffffe" fill-rule="evenodd" mask="url(#a)"/></svg>