<?xml version="1.0" encoding="UTF-8"?>
<svg width="93px" height="105px" viewBox="0 0 93 105" version="1.1" xmlns="http://www.w3.org/2000/svg" xmlns:xlink="http://www.w3.org/1999/xlink">
    <title>footer_logo</title>
    <g id="Layout" stroke="none" stroke-width="1" fill="none" fill-rule="evenodd">
        <g id="Home---Desktop-HD" transform="translate(-161.000000, -4582.000000)" fill-rule="nonzero">
            <g id="footer_logo" transform="translate(161.000000, 4582.000000)">
                <path d="M49.2986501,70.3197756 L63.5300747,70.3197756 L70.164794,82.743338 C71.5418112,85.2762973 72.2929115,86 74.5462124,86 L90.5696853,86 C92.4474361,86 93.5740865,84.3113604 92.6978028,82.743338 L48.883619,3.25666199 C47.6317851,1.20617111 47.256235,0 46.1295846,0 L45.7540344,0 C44.627384,0 44.2518338,1.20617111 43,3.25666199 C45.4125235,23.0378682 46.6321609,33.0708847 46.6589122,33.3557116 C47.0278036,37.2833793 56.7714333,53.6018455 56.7694433,53.585769 C56.7571064,53.4861033 49.0309652,53.5571659 49.0309652,53.585769 C49.0309652,53.585769 49.1201935,59.1637712 49.2986501,70.3197756 Z" id="A" fill="#FFFFFF"></path>
                <path d="M5.3579613,105 C30.0209545,104.758412 47,96.5444349 47,70.5737705 L47,3.26143227 C47,0.724762726 46.2563922,0 43.6537647,0 L12.2983011,0 C9.69567367,0 8.95206583,0.724762726 8.95206583,3.26143227 L8.95206583,11.5962036 C8.95206583,14.1328732 9.69567367,14.8576359 12.2983011,14.8576359 L26.7986538,14.8576359 L26.7986538,70.5737705 C26.7986538,83.4987058 21.0976605,87.9680759 3.746811,87.9680759 C1.14418358,87.9680759 -0.21909745,88.8136324 0.0287718278,91.1087144 L1.26811822,101.738568 C1.63992213,104.275237 1.88779141,105 5.3579613,105 Z" id="J" fill="#16A085"></path>
            </g>
        </g>
    </g>
</svg>