<?xml version="1.0" encoding="UTF-8"?>
<svg width="53px" height="62px" viewBox="0 0 53 62" version="1.1" xmlns="http://www.w3.org/2000/svg" xmlns:xlink="http://www.w3.org/1999/xlink">
    <title>logo_mark</title>
    <g id="Layout" stroke="none" stroke-width="1" fill="none" fill-rule="evenodd">
        <g id="Home---Desktop-HD" transform="translate(-46.000000, -22.000000)" fill="#FFFFFF" fill-rule="nonzero">
            <g id="logo_mark" transform="translate(46.000000, 22.000000)">
                <path d="M3.07797777,62 C17.2460802,61.8573483 27,57.0071901 27,41.6721311 L27,1.9257981 C27,0.427955134 26.572821,0 25.0776946,0 L7.06498148,0 C5.56985509,0 5.14267612,0.427955134 5.14267612,1.9257981 L5.14267612,6.84728214 C5.14267612,8.34512511 5.56985509,8.77308024 7.06498148,8.77308024 L15.3949714,8.77308024 L15.3949714,41.6721311 C15.3949714,49.3039977 12.1199326,51.9430544 2.15242334,51.9430544 C0.657296949,51.9430544 -0.125864493,52.4423353 0.0165284968,53.7975266 L0.728493444,60.0742019 C0.942082928,61.5720449 1.08447592,62 3.07797777,62 Z" id="J"></path>
                <path d="M28.5272441,41.7012623 L36.4968418,41.7012623 L40.2122846,49.0687237 C40.9834143,50.5708275 41.4040304,51 42.6658789,51 L51.6390238,51 C52.6905642,51 53.3214884,49.9985975 52.8307696,49.0687237 L28.2948266,1.9312763 C27.5937997,0.715287518 27.3834916,0 26.7525674,0 L26.5422593,0 C25.911335,0 25.7010269,0.715287518 25,1.9312763 C26.3510132,13.6619916 27.0340101,19.6118037 27.0489908,19.7807127 C27.25557,22.109911 32.7120026,31.7871409 32.7108882,31.7776072 C32.7039796,31.7185031 28.3773405,31.7606449 28.3773405,31.7776072 C28.3773405,31.7776072 28.4273084,35.0854922 28.5272441,41.7012623 Z" id="A"></path>
            </g>
        </g>
    </g>
</svg>