<?xml version="1.0" encoding="UTF-8"?>
<svg width="255px" height="16px" viewBox="0 0 255 16" version="1.1" xmlns="http://www.w3.org/2000/svg" xmlns:xlink="http://www.w3.org/1999/xlink">
    <title>brand_cargosense</title>
    <defs>
        <polygon id="path-1" points="0 0 24 0 24 16 0 16"></polygon>
    </defs>
    <g id="Layout" stroke="none" stroke-width="1" fill="none" fill-rule="evenodd">
        <g id="Home---Desktop-HD" transform="translate(-353.000000, -920.000000)">
            <g id="Customers" transform="translate(93.000000, 873.000000)">
                <g id="brand_cargosense" transform="translate(260.000000, 47.000000)">
                    <path d="M1.97832913,13.2898584 C0.652196418,11.9564643 0,10.0984562 0,8 C0,5.9019081 0.652196418,4.0439 1.97832913,2.71050594 C3.41279892,1.2678173 6.32630526,0 11.6739536,0 C15.9563477,0 19.1521101,0.896215675 21,1.92358486 L21,5.07090487 C18.8260119,3.78159297 15.413213,2.73236486 11.6956934,2.73236486 C7.95643397,2.73236486 5.6088892,3.49742702 4.60885469,4.50293729 C3.80447911,5.31171729 3.39142137,6.42652215 3.39142137,8 C3.39142137,9.57384216 3.82621899,10.6449292 4.63059457,11.4537092 C5.63062908,12.4592195 7.93469409,13.2679995 11.6739536,13.2679995 C15.3914731,13.2679995 18.8260119,12.306207 21,11.0821076 L21,14.0767795 C19.1521101,15.1037843 15.9563477,16 11.6739536,16 C6.32630526,16 3.41279892,14.732547 1.97832913,13.2898584" id="Fill-1" fill="#6C6E70"></path>
                    <path d="M31.7491307,9.84239311 L41.103059,9.84239311 L36.4157129,2.87508878 L31.7491307,9.84239311 Z M38.7169785,1 L49,16 L45.2413953,16 L42.8767825,12.4845637 L29.9754072,12.4845637 L27.6107944,16 L24,16 L34.2830215,1 L38.7169785,1 Z" id="Fill-3" fill="#6C6E70"></path>
                    <path d="M55.4412304,8.41428163 L65.0541041,8.41428163 C67.4740661,8.41428163 68.517536,8.09283775 69.0500016,7.57852755 C69.4052254,7.23565408 69.6050388,6.78563265 69.6050388,6.05702653 C69.6050388,5.37127958 69.4052254,4.85732654 69.0059687,4.47123673 C68.473133,3.95728368 67.562872,3.70012858 65.0763055,3.70012858 L55.4412304,3.70012858 L55.4412304,8.41428163 Z M65.0097011,1 C69.3611924,1 70.7373146,1.60002857 71.8473889,2.67150817 C72.6910454,3.48583266 73.0240677,4.7073194 73.0240677,5.97130816 C73.0240677,7.23565408 72.6910454,8.39285204 71.758583,9.2928949 C70.9149265,10.1072194 69.6272403,10.7929663 66.6526111,10.9858327 L75,15.9360684 L75,16 L69.8048522,16 L61.5906722,11.0286918 L55.4412304,11.0286918 L55.4412304,16 L52,16 L52,1 L65.0097011,1 Z" id="Fill-5" fill="#6C6E70"></path>
                    <path d="M100,7.16936108 L100,8.91807459 C100,11.0602486 99.4816658,12.4369962 98.3802056,13.5521654 C97.0195784,14.928913 94.3634756,16 88.9857583,16 C82.852497,16 80.3904096,14.7103238 78.9649905,13.2679995 C77.7343068,12.0220411 77,10.2514686 77,8 C77,5.9019081 77.6475578,4.04353568 78.9649905,2.71050594 C80.3904096,1.2678173 83.2412476,0 88.9857583,0 C93.564377,0 97.1059674,0.808779999 98.9417344,1.74871351 L98.9417344,4.85267999 C96.7604113,3.65043946 93.1540291,2.73236486 88.9857583,2.73236486 C84.7962502,2.73236486 82.5717326,3.49742702 81.5782588,4.50293729 C80.7791602,5.31135298 80.3688123,6.42615784 80.3688123,8 C80.3688123,9.66127784 80.8223547,10.7542238 81.5782588,11.5192859 C82.5717326,12.5247962 84.4074996,13.3550708 88.9857583,13.3550708 C92.6140977,13.3550708 94.903407,12.6996676 95.7669374,11.8253108 C96.3500634,11.23512 96.566036,10.6449292 96.566036,9.87986702 L87.2799349,9.87986702 L87.2799349,7.16936108 L100,7.16936108 Z" id="Fill-7" fill="#6C6E70"></path>
                    <g id="Group-11" transform="translate(103.000000, 0.000000)">
                        <mask id="mask-2" fill="white">
                            <use xlink:href="#path-1"></use>
                        </mask>
                        <g id="Clip-10"></g>
                        <path d="M4.68224511,4.45386831 C3.83284178,5.29715144 3.39725033,6.29179308 3.39725033,7.99998198 C3.39725033,9.70817088 3.85462135,10.6592069 4.72580426,11.5241126 C5.68410545,12.475509 7.86206271,13.3620374 11.9998185,13.3620374 C16.1161577,13.3620374 18.3158946,12.5403769 19.3391715,11.5241126 C20.1453786,10.7240748 20.6023867,9.70817088 20.6023867,7.99998198 C20.6023867,6.29179308 20.1018195,5.29715144 19.2956123,4.4971136 C18.2719724,3.48084932 16.1161577,2.63756619 11.9998185,2.63756619 C7.88384228,2.63756619 5.68410545,3.45922668 4.68224511,4.45386831 M22.0180589,2.70243412 C23.3466128,4.02141543 24,5.70798168 24,7.99998198 C24,10.2916219 23.3683924,11.9565655 22.0180589,13.2971695 C20.5588275,14.746247 17.7060665,16 11.9998185,16 C6.29393348,16 3.44080947,14.746247 2.00372068,13.3187921 C0.631607605,11.9565655 0,10.2916219 0,7.99998198 C0,5.70798168 0.631607605,4.04303807 1.9819411,2.70243412 C3.46258905,1.23245469 6.31571305,-3.60377405e-05 11.9998185,-3.60377405e-05 C17.7060665,-3.60377405e-05 20.5588275,1.25407733 22.0180589,2.70243412" id="Fill-9" fill="#6C6E70" mask="url(#mask-2)"></path>
                    </g>
                    <path d="M149.018898,13.3845555 C149.524711,12.8570709 149.693316,12.1977151 149.693316,11.5383594 C149.693316,10.9009822 149.587938,10.3079283 149.145351,9.82403443 C148.555587,9.20900204 147.269978,8.74745301 141.115916,8.46173218 C135.236187,8.15403283 133.234009,7.62654823 132.32776,6.68147165 C131.779796,6.08805147 131.526889,5.27484604 131.526889,4.39570503 C131.526889,3.45062845 131.779796,2.52753039 132.454213,1.82421759 C133.46584,0.769614689 135.678422,0 140.610453,0 C144.593031,0 147.881169,0.72529133 149.840844,1.42860413 L149.840844,2.65940154 C147.522533,1.80223906 144.087569,1.14324962 140.610453,1.14324962 C135.994907,1.14324962 134.245284,1.73630349 133.46584,2.54950892 C133.044329,2.98907942 132.854649,3.60447812 132.854649,4.30779093 C132.854649,4.98912521 133.044329,5.49463129 133.402613,5.84628769 C134.077031,6.54960049 135.742,6.96719247 141.389898,7.2529133 C147.859742,7.58259118 149.313956,8.11007578 150.199129,9.03317384 C150.81032,9.67018476 151,10.5493258 151,11.4504453 C151,12.3735434 150.747093,13.3845555 150.072676,14.0878683 C149.208578,14.9889878 147.438231,16 141.453124,16 C137.132635,16 133.381538,15.2527301 131,14.241718 L131,13.0109206 C133.339387,14.0219327 137.491271,14.8790952 141.495276,14.8790952 C146.869542,14.8790952 148.386631,14.0439113 149.018898,13.3845555" id="Fill-12" fill="#6C6E70"></path>
                    <polygon id="Fill-14" fill="#6C6E70" points="176.701118 7.85711224 176.701118 8.97145102 159.323976 8.97145102 159.323976 14.8642316 177 14.8642316 177 16 158 16 158 1 177 1 177 2.13541121 159.323976 2.13541121 159.323976 7.85711224"></polygon>
                    <polygon id="Fill-16" fill="#6C6E70" points="202.69317 14.842802 202.69317 1 204 1 204 16 202.135651 16 184.328974 2.09255203 184.328974 16 183 16 183 1 184.928994 1"></polygon>
                    <path d="M228.018898,13.3845555 C228.52436,12.8570709 228.693316,12.1977151 228.693316,11.5383594 C228.693316,10.9009822 228.587938,10.3079283 228.145351,9.82403443 C227.555236,9.20900204 226.269978,8.74745301 220.115916,8.46173218 C214.236187,8.15403283 212.234009,7.62654823 211.327409,6.68147165 C210.779796,6.08805147 210.526889,5.27484604 210.526889,4.39570503 C210.526889,3.45062845 210.779796,2.52753039 211.454213,1.82421759 C212.46584,0.769614689 214.678422,0 219.610102,0 C223.593031,0 226.880818,0.72529133 228.840844,1.42860413 L228.840844,2.65940154 C226.522533,1.80223906 223.087218,1.14324962 219.610102,1.14324962 C214.994555,1.14324962 213.245284,1.73630349 212.46584,2.54950892 C212.043978,2.98907942 211.854298,3.60447812 211.854298,4.30779093 C211.854298,4.98912521 212.043978,5.49463129 212.402613,5.84628769 C213.077031,6.54960049 214.741649,6.96719247 220.389547,7.2529133 C226.859742,7.58259118 228.313956,8.11007578 229.198778,9.03317384 C229.81032,9.67018476 230,10.5493258 230,11.4504453 C230,12.3735434 229.747093,13.3845555 229.072676,14.0878683 C228.208578,14.9889878 226.438231,16 220.453124,16 C216.132635,16 212.381187,15.2527301 210,14.241718 L210,13.0109206 C212.339035,14.0219327 216.491271,14.8790952 220.495276,14.8790952 C225.869191,14.8790952 227.386631,14.0439113 228.018898,13.3845555" id="Fill-18" fill="#6C6E70"></path>
                    <polygon id="Fill-20" fill="#6C6E70" points="254.701112 7.85711224 254.701112 8.97145102 237.323645 8.97145102 237.323645 14.8642316 255 14.8642316 255 16 236 16 236 1 255 1 255 2.13541121 237.323645 2.13541121 237.323645 7.85711224"></polygon>
                </g>
            </g>
        </g>
    </g>
</svg>