<?xml version="1.0" encoding="UTF-8"?>
<svg width="107px" height="41px" viewBox="0 0 107 41" version="1.1" xmlns="http://www.w3.org/2000/svg" xmlns:xlink="http://www.w3.org/1999/xlink">
    <title>brand_livingsocial</title>
    <defs>
        <polygon id="path-1" points="14.1057031 0 14.1057031 13.3048124 0 13.3048124 0 0"></polygon>
    </defs>
    <g id="Layout" stroke="none" stroke-width="1" fill="none" fill-rule="evenodd">
        <g id="Home---Desktop-HD" transform="translate(-680.000000, -904.000000)">
            <g id="Customers" transform="translate(93.000000, 873.000000)">
                <g id="brand_livingsocial" transform="translate(587.000000, 31.000000)">
                    <g id="Group-3" transform="translate(93.229321, 0.000000)">
                        <mask id="mask-2" fill="white">
                            <use xlink:href="#path-1"></use>
                        </mask>
                        <g id="Clip-2"></g>
                    </g>
                    <path d="M94.6104419,9.35608759 C94.460949,9.21805136 94.2972229,9.09442157 94.1112277,8.99715251 C93.5465195,8.70289318 92.919066,8.65094369 92.3035639,8.74467074 C91.4165388,6.71537121 91.7851678,4.81576375 93.000112,3.1591927 C93.1250159,3.18519339 93.2478312,3.21627263 93.3678198,3.25293563 L93.5455188,3.31194107 C93.3700295,3.2483509 93.1873557,3.19793425 93,3.15901106 C93.2636799,2.80154046 93.5635877,2.45460508 93.9000971,2.11965804 C96.8730318,-0.832017348 103.729456,1.72840211 106.126104,5.27913137 C107.768688,7.71530801 106.908554,10.4955138 105.095288,12.121569 C104.106301,13.0087064 102.828612,13.5768812 101.413106,13.7370891 C100.305726,13.8642382 99.1001184,13.8882149 97.9531482,13.6193853 C97.5083285,13.5143965 96.7964675,13.2266763 96.1238223,12.8801042 C96.0853535,12.0169435 95.7271821,11.1367085 95.4302621,10.4995099 C95.2610737,10.1318674 95.0362362,9.79001793 94.7557495,9.4979383 L94.7557495,9.4979383 Z" id="Combined-Shape" fill="#757571"></path>
                    <path d="M92.3662332,8.33979305 C91.556836,6.37454724 91.8938012,4.53520658 93,2.93255354 C92.0935977,2.7331451 91.0622801,2.84814785 90.2402893,3.0510732 C88.4482473,3.47345334 87.9611794,4.35654787 88.002364,6.20643924 C88.0299339,7.64098427 88.7253075,9.07060565 89.8304852,9.82885009 C90.0479809,9.56859922 90.2848776,9.328043 90.5476424,9.13250315 C91.0663645,8.74775388 91.7089809,8.44565185 92.3662332,8.33979305 Z" id="Fill-4" fill="#757571"></path>
                    <path d="M93.1975352,10.0918274 C92.5430266,10.3728599 92.1604026,10.3595148 91.5352973,10.4305579 C90.6726749,10.5114137 89.8959711,10.2704165 89.2452811,9.82885009 C88.2803202,10.9808478 87.7732097,12.6050273 88.0981728,14.0188249 L88.1000821,14.0211799 C88.7404618,13.9823221 89.4136815,14.1299034 89.7050409,14.758694 C89.849766,15.0558191 89.9314841,15.6979548 89.8406013,16.2871026 C91.6991154,17.3503945 93.4984411,16.8895954 95.3978142,14.5392845 C95.8862135,13.9858546 96.0259743,13.3146736 95.9961892,12.6348576 C95.3454993,12.2796419 94.7291768,11.8655507 94.4183425,11.500915 C93.9467451,11.0263782 93.5435006,10.5573366 93.1975352,10.0918274" id="Fill-8" fill="#757571"></path>
                    <path d="M94.499386,8.82885009 C94.3012689,9.16787684 94.0638559,9.45190305 93.769955,9.64440493 C93.471142,9.81928945 93.2210397,9.94733758 93,10.0461667 C93.3708555,10.5544919 93.8031109,11.0692626 94.3086369,11.5866114 C94.6430618,11.9870841 95.3024969,12.4404088 96,12.8288501 C95.9570201,11.8083323 95.5644699,10.7671893 95.2402783,10.0126507 C95.0536226,9.5786621 94.8067949,9.17303314 94.499386,8.82885009" id="Fill-10" fill="#757571"></path>
                    <path d="M91.3183531,10.8152489 C91.9496472,10.7525604 92.3373925,10.7649603 93,10.5183396 C92.5090364,9.94587648 92.1440997,9.38271332 91.8789021,8.82885009 C91.1335653,8.93287167 90.406398,9.22736984 89.8145356,9.60522304 C89.5149319,9.79569964 89.2474147,10.0326759 89,10.2865299 C89.6575819,10.6750608 90.4435102,10.886204 91.3183531,10.8152489" id="Fill-12" fill="#757571"></path>
                    <path d="M93.4426504,7.82885009 L93.4414318,7.82885009 C93.2942879,7.82885009 93.1474486,7.84557317 93,7.87583397 C93.2071592,8.51688513 93.4965727,9.16709417 93.8831683,9.82885009 C94.048591,9.7392622 94.2350343,9.62020984 94.4592536,9.45656261 C94.6749429,9.280174 94.8534653,9.01658651 95,8.70282979 C94.8467631,8.48901334 94.6767708,8.29470715 94.4744859,8.15335736 C94.4705255,8.15096835 94.4665651,8.14857934 94.4647372,8.14539399 C94.463214,8.14539399 94.4610815,8.14419949 94.4610815,8.14300498 C94.1393755,7.92281784 93.7942117,7.82885009 93.4435644,7.82885009 L93.4426504,7.82885009" id="Fill-14" fill="#757571"></path>
                    <path d="M94.474021,8.15294512 C94.0120372,7.82955281 93.5025141,7.77260072 93,7.87535345 C93.2063081,8.5157658 93.4958098,9.16812615 93.882828,9.82885009 C94.0483011,9.73924015 94.2344964,9.6201585 94.4587841,9.45647102 C94.6754533,9.27924247 94.8543349,9.01598839 95,8.70255274 C94.8467164,8.48788716 94.6763675,8.29432969 94.474021,8.15294512" id="Fill-18" fill="#757571"></path>
                    <path d="M88.5134729,13.8288501 L88.4961877,13.8288501 C88.3011585,13.8454858 88.1106952,13.8877149 87.9404523,13.9401813 C87.1890354,14.1641233 86.9848744,14.6333352 87.000855,15.6152676 C87.0191186,16.7746475 87.6854141,17.9327477 88.6230546,17.8214165 C88.9306007,17.7762016 89.2981557,17.7139244 89.5117747,17.4848637 C89.8460639,17.1295423 89.9631467,16.869343 90,16.2917858 C90,16.2917858 89.8754161,16.1992231 89.8111674,16.1493161 C89.0897549,15.5636543 88.6775193,14.7378415 88.5134729,13.8288501" id="Fill-20" fill="#757571"></path>
                    <path d="M89.8186902,14.4819954 C89.4887584,13.9236529 88.722341,13.7973529 88,13.8349669 C88.2152473,14.5706815 88.7561472,15.2404854 89.7057175,15.7139378 C89.7865957,15.7546575 89.8704694,15.7933067 89.9517756,15.8288501 C90.0553339,15.3115723 89.9834422,14.7442577 89.8186902,14.4819954" id="Fill-26" fill="#757571"></path>
                    <path d="M100.638891,21.3064762 C99.5359449,21.0049896 98.1947562,20.8338254 97.5447323,20.8338254 C93.3693196,20.8338254 91.2498226,23.4952247 91.2498226,27.8990831 C91.2498226,31.506898 92.7204176,33.891687 95.7936321,33.891687 C97.8708663,33.891687 98.9947569,32.7941569 99.6877916,31.5703884 L99.6877916,32.7525725 C99.6877916,33.334011 100.097703,33.8040628 100.68265,33.8040628 C101.287793,33.8040628 101.677882,33.334011 101.677882,32.7525725 L101.677882,22.9386625 C101.677882,22.036059 101.569794,21.5634082 100.638891,21.3064762 L100.638891,21.3064762 Z M99.6010221,27.9855934 C99.6010221,29.6593641 98.4337466,32.3007138 95.8796537,32.3007138 C93.9336959,32.3007138 93.3278048,30.0685245 93.3278048,27.9636874 C93.3278048,24.870479 94.321541,22.5083386 97.2204683,22.5083386 C98.1738118,22.5083386 99.1234153,22.7010376 99.6010221,22.8944791 L99.6010221,27.9855934 Z M86.6214876,21.9933608 C86.6214876,21.3907588 87.0766539,20.9192218 87.6597306,20.9192218 C88.2656218,20.9192218 88.7185441,21.3907588 88.7185441,21.9933608 L88.7185441,32.7525725 C88.7185441,33.334011 88.2656218,33.8040628 87.6597306,33.8040628 C87.0766539,33.8040628 86.6214876,33.334011 86.6214876,32.7525725 L86.6214876,21.9933608 Z M83.1174172,31.5288041 C83.4196147,31.3568973 83.7872635,31.1634557 84.1335939,31.1634557 C84.5435054,31.1634557 84.9126502,31.4203877 84.9126502,31.9780637 C84.9126502,32.3007138 84.7593074,32.5591309 84.4365394,32.773736 C83.5703395,33.353318 82.1644477,33.891687 80.5865127,33.891687 C77.0151211,33.891687 75.0901077,31.6142005 75.0901077,27.3621993 C75.0901077,22.2941049 78.2055849,20.8338254 80.5644463,20.8338254 C81.8843165,20.8338254 83.2034388,21.1334556 84.4571098,22.1641537 C84.6744078,22.3368031 84.8034402,22.616755 84.8034402,22.8944791 C84.8034402,23.389036 84.4571098,23.8189887 83.9387363,23.8189887 C83.6589791,23.8189887 83.3332192,23.6474532 83.1174172,23.4744325 C82.2942281,22.7871766 81.5802489,22.5729429 80.5865127,22.5729429 C78.6383109,22.5729429 77.1894083,24.0324798 77.1894083,27.2756889 C77.1894083,30.132015 78.2055849,32.1510844 80.7791262,32.1510844 C81.5387342,32.1510844 82.2942281,32.000341 83.1174172,31.5288041 L83.1174172,31.5288041 Z M68.0382081,20.8338254 C65.5488184,20.8338254 62.3278712,22.1210842 62.3278712,27.2756889 C62.3278712,31.76383 64.4249277,33.891687 67.6268006,33.891687 C70.7628482,33.891687 73.3382595,31.8722463 73.3382595,27.018757 C73.3382595,21.3695953 69.7691119,20.8338254 68.0382081,20.8338254 L68.0382081,20.8338254 Z M67.7999657,32.2595007 C65.0311929,32.2595007 64.4249277,29.4239669 64.4249277,27.0402917 C64.4249277,24.4197342 65.6161396,22.5083386 67.8859873,22.5083386 C70.2231563,22.5083386 71.1959481,24.5266654 71.1959481,27.4275461 C71.1959481,30.0685245 70.0720575,32.2595007 67.7999657,32.2595007 L67.7999657,32.2595007 Z M52.7869559,31.2703869 C53.0465167,31.2703869 53.2413742,31.3765756 53.4149134,31.4641998 C54.1719033,31.8722463 55.0579256,32.2595007 56.2697079,32.2595007 C57.6120186,32.2595007 58.6278212,31.6357353 58.6278212,30.2619661 C58.6278212,28.8870831 57.3300174,28.4363382 55.9237515,27.9855934 C54.2149141,27.4275461 52.3542299,26.8030381 52.3542299,24.4620611 C52.3542299,21.9506626 54.3667609,20.8338254 56.5741495,20.8338254 C57.9579749,20.8338254 59.0609212,21.196946 59.8829883,21.7134089 C60.1208567,21.8422462 60.4241762,22.1210842 60.4241762,22.5291308 C60.4241762,23.0040094 60.0987902,23.389036 59.6219315,23.389036 C59.3859331,23.389036 59.1259984,23.2601988 58.9079524,23.1309902 C58.1969653,22.7010376 57.3726542,22.5083386 56.4870059,22.5083386 C55.4708292,22.5083386 54.3226281,22.8944791 54.3226281,24.2693622 C54.3226281,25.5365714 55.6428724,26.0099649 56.983687,26.4376897 C58.6498876,26.9964796 60.6167898,27.8125728 60.6167898,30.1524359 C60.6167898,32.6233639 58.8660636,33.891687 56.2921483,33.891687 C54.4737269,33.891687 53.3719026,33.3741102 52.5704059,32.9463853 C52.245768,32.773736 51.9869552,32.5164327 51.9869552,32.1302922 C51.9869552,31.6580126 52.3112192,31.2703869 52.7869559,31.2703869 L52.7869559,31.2703869 Z M35.1338315,25.6642948 C35.1338315,23.9467121 34.5503808,22.5291308 32.5602903,22.5291308 C30.7433649,22.5291308 29.2933402,24.377036 29.2933402,26.5680122 L29.2933402,32.7525725 C29.2933402,33.334011 28.8385479,33.8040628 28.2337788,33.8040628 C27.649954,33.8040628 27.1947877,33.334011 27.1947877,32.7525725 L27.1947877,21.9933608 C27.1947877,21.3907588 27.6061952,20.9192218 28.189646,20.9192218 C28.7951631,20.9192218 29.2073187,21.3907588 29.2073187,21.9933608 L29.2073187,22.8302461 C30.094463,21.3695953 31.45697,20.8338254 32.927191,20.8338254 C35.6312607,20.8338254 37.2323841,22.271085 37.2323841,25.1504309 L37.2323841,32.7525725 C37.2323841,33.334011 36.7783398,33.8040628 36.1728226,33.8040628 C35.5882499,33.8040628 35.1338315,33.334011 35.1338315,32.7525725 L35.1338315,25.6642948 Z M17.5895432,21.5842004 C17.740642,21.196946 18.0873463,20.9418705 18.5208203,20.9418705 C19.2549958,20.9418705 19.7744913,21.52071 19.4715458,22.3368031 L15.512309,32.9244793 C15.3398919,33.3960163 15.1023975,33.7832707 14.5829019,33.7832707 C14.0634064,33.7832707 13.8692968,33.4190362 13.6744393,32.9244793 L9.7582133,22.4233134 C9.45638975,21.6280125 9.84498289,20.9418705 10.667798,20.9418705 C11.1218424,20.9418705 11.4677987,21.2199659 11.6188975,21.6061064 L14.6251647,29.7028049 L17.5895432,21.5842004 Z M0,16.9022465 C0,16.3007584 0.454792356,15.8288501 1.03899109,15.8288501 C1.6437602,15.8288501 2.09967458,16.3007584 2.09967458,16.9022465 L2.09967458,32.893291 C2.09967458,33.4739869 1.6437602,33.9470091 1.03899109,33.9470091 C0.454792356,33.9470091 0,33.4739869 0,32.893291 L0,16.9022465 Z M104.901821,16.9022465 C104.901821,16.3007584 105.355866,15.8288501 105.940065,15.8288501 C106.547452,15.8288501 107,16.3007584 107,16.9022465 L107,32.893291 C107,33.4739869 106.547452,33.9470091 105.940065,33.9470091 C105.355866,33.9470091 104.901821,33.4739869 104.901821,32.893291 L104.901821,16.9022465 Z M48.6934507,21.2210798 C47.7199108,20.98494 46.7471189,20.8130332 45.8379082,20.8130332 C42.7014866,20.8130332 39.8459441,22.9601973 39.8459441,27.0636829 C39.8459441,31.4641998 41.7702095,33.0548017 44.0209828,33.2679216 L43.5669385,33.5697795 C42.2474422,34.4504769 40.819484,35.4588978 40.819484,37.392942 C40.819484,39.4112688 42.181991,40.8288501 44.8000391,40.8288501 C49.7754526,40.8288501 49.9699361,36.2107579 49.9699361,33.4836405 L49.9699361,22.9824746 C49.9699361,21.6072203 49.6022874,21.4367986 48.6934507,21.2210798 L48.6934507,21.2210798 Z M48.0228564,34.4285709 C48.0228564,37.1983866 47.352636,39.3043376 44.9724563,39.3043376 C43.6750265,39.3043376 42.7669378,38.7232704 42.7669378,37.392942 C42.7669378,36.2556839 43.9345872,35.2654562 45.2110727,34.1924311 L48.0228564,31.8098698 L48.0228564,34.4285709 Z M48.0445488,28.0074995 C48.0445488,29.8966178 46.8331405,31.830662 45.0816663,31.830662 C42.0308923,31.830662 41.9228043,28.8016866 41.9228043,27.2560106 C41.9228043,24.1405249 43.4150917,22.4890316 45.5783474,22.4890316 C46.7243045,22.4890316 47.352636,22.638661 48.0445488,22.8532661 L48.0445488,28.0074995 Z M21.9093226,21.9736825 C21.9093226,21.3710805 22.3618709,20.8976871 22.9464436,20.8976871 C23.5530828,20.8976871 24.0060051,21.3710805 24.0060051,21.9736825 L24.0060051,32.7328942 C24.0060051,33.3128475 23.5530828,33.7854984 22.9464436,33.7854984 C22.3618709,33.7854984 21.9093226,33.3128475 21.9093226,32.7328942 L21.9093226,21.9736825 Z M5.59589082,21.9736825 C5.59589082,21.3710805 6.05105718,20.8976871 6.63525592,20.8976871 C7.24114705,20.8976871 7.6959394,21.3710805 7.6959394,21.9736825 L7.6959394,32.7328942 C7.6959394,33.3128475 7.24114705,33.7854984 6.63525592,33.7854984 C6.05105718,33.7854984 5.59589082,33.3128475 5.59589082,32.7328942 L5.59589082,21.9736825 Z" id="Fill-28" fill="#757571"></path>
                </g>
            </g>
        </g>
    </g>
</svg>