<?xml version="1.0" encoding="UTF-8"?>
<svg width="223px" height="17px" viewBox="0 0 223 17" version="1.1" xmlns="http://www.w3.org/2000/svg" xmlns:xlink="http://www.w3.org/1999/xlink">
    <title>brand_guggenheim</title>
    <g id="Layout" stroke="none" stroke-width="1" fill="none" fill-rule="evenodd">
        <g id="Home---Desktop-HD" transform="translate(-859.000000, -919.000000)" fill="#757571">
            <g id="Customers" transform="translate(93.000000, 873.000000)">
                <g id="brand_guggenheim" transform="translate(766.000000, 46.000000)">
                    <path d="M222.99914,17 L219.134421,17 L219.134421,3.23572493 L213.01371,3.23572493 L213.01371,16.9911577 L209.135446,16.9911577 L209.135446,3.2355144 L202.859588,3.2355144 L202.859588,16.9997895 L199,16.9997895 L199,0.000712912766 L199.24647,0.000712912766 C206.091816,0.000712912766 212.937162,-0.00307663665 219.782508,0.00681829794 C220.438394,0.00787095055 221.087508,0.131241837 221.677517,0.457564148 C222.335045,0.821360892 222.705879,1.40937264 222.845224,2.14454523 C222.926491,2.57508015 222.991752,3.01719425 222.992778,3.45446614 C223.003449,7.8581331 222.99914,12.2620106 222.99914,16.6656775 L222.99914,17 Z" id="Fill-1"></path>
                    <path d="M64.1508738,13.7647232 L64.1508738,10.0381344 L57.773168,10.0381344 L57.773168,7.1409152 L67.9962951,7.1409152 L67.9962951,7.39079878 C67.9960867,9.53605354 68.0085907,11.681098 67.9887926,13.8261424 C67.9825406,14.4998605 67.8435369,15.1641133 67.4882126,15.7528542 C67.1024618,16.3920766 66.4928879,16.692652 65.7918258,16.8478827 C65.1238996,16.9959619 64.4480541,17.0005894 63.7692909,17 C59.6437783,16.9963826 55.5180572,17.0031135 51.3925445,16.9925965 C50.80131,16.9909137 50.2113258,16.8943678 49.6569783,16.668463 C48.7718979,16.3073097 48.3142485,15.5894202 48.1656584,14.6801216 C48.0629165,14.0497335 48.0160262,13.4039906 48.0126918,12.7647682 C47.9972701,9.81222959 47.9935189,6.85927032 48.0149842,3.90694207 C48.0201943,3.20545912 48.0737534,2.50187277 48.2932,1.81532394 C48.6012172,0.852388719 49.2908172,0.352411215 50.2079914,0.164788189 C50.80131,0.0434221727 51.4206787,0.00934713872 52.028377,0.00808510042 C57.2292405,-0.00369392366 62.4298956,0.000933550088 67.6307591,0.000723210372 L67.9258554,0.000723210372 L67.9258554,3.0565386 L52.0073285,3.0565386 L52.0073285,13.7647232 L64.1508738,13.7647232 Z" id="Fill-3"></path>
                    <path d="M19.8831778,0.00123298446 L19.8831778,3.06182699 L3.951638,3.06182699 L3.951638,13.7675964 L16.0926433,13.7675964 L16.0926433,10.0379706 L9.72382025,10.0379706 L9.72382025,7.13595882 L19.9794572,7.13595882 C19.9838336,7.21125381 19.9917527,7.28381462 19.9917527,7.35658576 C19.9927946,9.26609187 20.0146763,11.1760186 19.9825832,13.0848938 C19.9696626,13.8590861 19.939445,14.6440048 19.6239318,15.3820218 C19.2988324,16.142333 18.7353267,16.6195518 17.9513369,16.7836023 C17.3665747,16.9060092 16.7618063,16.98509 16.1657907,16.9876138 C11.8898995,17.0044395 7.61379984,17.0029673 3.33790861,16.9901377 C2.70709065,16.9884551 2.08106583,16.8740404 1.49401126,16.6119802 C0.737113079,16.2737837 0.334073131,15.6470266 0.163187528,14.8658936 C0.0681584602,14.4313701 0.011057661,13.9791795 0.0093904844,13.5347708 C-0.00311334024,10.1784652 0.00584773409,6.82194928 0,3.46543336 C-0.00123776655,2.78357205 0.0902485504,2.11496098 0.367625061,1.49998181 C0.67709472,0.813072791 1.23935004,0.366350576 1.97290775,0.214288353 C2.53391268,0.0981910546 3.11242297,0.0117490441 3.68343096,0.0100664746 C8.98442742,-0.00486633015 14.2856323,0.00123298446 19.5868371,0.00123298446 L19.8831778,0.00123298446 Z" id="Fill-5"></path>
                    <polygon id="Fill-10" points="98 0 114.853911 0 114.853911 2.90086137 101.895766 2.90086137 101.895766 6.65588399 112.266229 6.65588399 112.266229 9.57507591 101.896783 9.57507591 101.896783 13.7858338 115 13.7858338 115 17 98 17"></polygon>
                    <path d="M92.9964854,7.13257633 L92.9964854,7.41733831 C92.996277,9.51204239 93.0085728,11.6067465 92.9883576,13.7012402 C92.9821055,14.3649838 92.8676914,15.0219974 92.5511249,15.62433 C92.2485216,16.2007943 91.7683576,16.5551694 91.1641929,16.7402437 C90.4887539,16.9471903 89.7935165,17.0012404 89.0878588,17 C84.8532876,16.992828 80.6187164,17.0088116 76.3843536,16.9863083 C75.5215589,16.9818917 74.6612651,16.8386695 73.9591503,16.2411741 C73.6023618,15.9376944 73.3899976,15.5383126 73.2562019,15.0979199 C73.0563419,14.4404857 73.0086173,13.7592863 73.0071585,13.0778765 C73.0011148,9.94002661 72.991945,6.80238703 73.0138274,3.66474745 C73.0190375,2.92318856 73.0898951,2.17658218 73.4150061,1.47981967 C73.7790888,0.699353121 74.4361882,0.345608917 75.214579,0.154225311 C75.8547977,-0.00308780638 76.5081458,-0.000353754868 77.162536,0 C82.3224232,0.00343185492 87.4823105,0.00174936168 92.6419893,0.00174936168 L92.9295875,0.00174936168 L92.9295875,3.05778802 L76.960592,3.05778802 L76.960592,13.7611791 L89.1391263,13.7611791 L89.1391263,10.0403453 L82.7727854,10.0403453 L82.7727854,7.13257633 L92.9964854,7.13257633 Z" id="Fill-7"></path>
                    <polygon id="Fill-12" points="172.839117 2.89693942 172.839117 6.65177077 182.972171 6.65177077 182.972171 9.57168003 172.848477 9.57168003 172.848477 13.7840116 186 13.7840116 186 17 169 17 169 0 185.805877 0 185.805877 2.89693942"></polygon>
                    <polygon id="Fill-14" points="143 0 146.892516 0 146.892516 6.54583654 159.045307 6.54583654 159.045307 0.00674285431 163 0.00674285431 163 16.9976821 159.060229 16.9976821 159.060229 9.70107092 146.908682 9.70107092 146.908682 17 143 17"></polygon>
                    <path d="M134.022084,3.22831754 L122.92454,3.22831754 L122.92454,16.9993683 L119,16.9993683 L119,0.000641974308 L119.274052,0.000641974308 C124.367007,0.000641974308 129.459962,-0.0023058669 134.552916,0.00443205587 C135.169897,0.00506373613 135.78126,0.100658015 136.358704,0.333958591 C137.252442,0.69549026 137.706491,1.41686912 137.840499,2.34207014 C137.933098,2.98364672 137.98949,3.63659355 137.991571,4.28490805 C138.004889,8.43610016 137.998438,12.5875028 137.998438,16.7391161 L137.998438,17 L134.022084,17 L134.022084,3.22831754 Z" id="Fill-16"></path>
                    <path d="M24.000874,0 L27.9289057,0 L27.9289057,13.7625518 L39.0506496,13.7625518 L39.0506496,0.00863027474 L42.9984872,0.00863027474 L42.9984872,0.265644066 C42.9984872,4.76138572 43.0047417,9.25733787 42.9918158,13.7530795 C42.9899394,14.4260305 42.8552593,15.0895091 42.5212692,15.688787 C42.1405789,16.3722627 41.5092918,16.6821106 40.7858552,16.8439809 C40.1608226,16.9835387 39.5268252,17.0010098 38.8886582,17 C35.0529846,16.9938529 31.2171025,17.0033252 27.3812204,16.9906955 C26.7328377,16.9883801 26.0861229,16.8791334 25.4869422,16.606964 C24.7186816,16.2573327 24.3144328,15.6087991 24.1578619,14.8026051 C24.0713414,14.3559358 24.0085879,13.8966368 24.007337,13.4423896 C23.9964959,9.07315518 24.000874,4.70349973 24.000874,0.333844286 L24.000874,0 Z" id="Fill-18"></path>
                    <polygon id="Fill-20" points="190 17 194 17 194 0 190 0"></polygon>
                </g>
            </g>
        </g>
    </g>
</svg>