<?xml version="1.0" encoding="UTF-8"?>
<svg width="188px" height="23px" viewBox="0 0 188 23" version="1.1" xmlns="http://www.w3.org/2000/svg" xmlns:xlink="http://www.w3.org/1999/xlink">
    <title>brand_procore</title>
    <g id="Layout" stroke="none" stroke-width="1" fill="none" fill-rule="evenodd" opacity="0.6">
        <g id="Home---Desktop-HD" transform="translate(-1153.000000, -916.000000)" fill="#222321">
            <g id="Customers" transform="translate(93.000000, 873.000000)">
                <g id="brand_procore" transform="translate(1060.000000, 43.000000)">
                    <path d="M103,5.44202472 C103,3.30462363 102.600347,1.86063698 101.802539,1.11758551 C101.00473,0.373029887 99.5123937,0 97.3255299,0 L83.6729733,0 C81.4876063,0 79.9937732,0.373029887 79.1959646,1.11608136 C78.3981559,1.85913282 78,3.29860702 78,5.43901641 L78,17.5624877 C78,19.7028971 78.3981559,21.1468838 79.1959646,21.8884311 C79.9937732,22.6329867 81.4876063,23 83.6729733,23 L97.3255299,23 C99.5123937,23 101.00473,22.6329867 101.802539,21.8899353 C102.600347,21.1483879 103,19.7074096 103,17.5730168 L103,14.5451573 L97.26416,14.5451573 L94.9336008,18.6018573 L86.5977727,18.6018573 L82.4306071,11.3488326 L86.5977727,4.09430384 L94.9321039,4.09580799 L97.2057837,8.05172978 L103,8.05172978 L103,5.44202472" id="Fill-1"></path>
                    <path d="M56.4321039,11.3488326 L60.5977727,18.6018573 L68.9336008,18.6018573 L73.0977727,11.3473285 L68.9321039,4.09580799 L60.5977727,4.09430384 L56.4321039,11.3488326 Z M77,14.5451573 L77,17.5730168 C77,19.7074096 76.6003473,21.1483879 75.8025386,21.8899353 C75.00473,22.6329867 73.5123937,23 71.3270267,23 L57.6729733,23 C55.4861094,23 53.9937732,22.6329867 53.1959646,21.8884311 C52.3981559,21.1468838 52,19.7028971 52,17.5624877 L52,5.43901641 C52,3.29860702 52.3981559,1.85913282 53.1959646,1.11608136 C53.9937732,0.373029887 55.4861094,0 57.6729733,0 L71.3270267,0 C73.5123937,0 75.00473,0.373029887 75.8025386,1.11758551 C76.6003473,1.86063698 77,3.30462363 77,5.44202472 L77,14.5451573 L77,14.5451573 Z" id="Fill-2"></path>
                    <path d="M109.432104,11.3488326 L113.597773,18.6018573 L121.933601,18.6018573 L126.09927,11.3473285 L121.932104,4.09580799 L113.597773,4.09430384 L109.432104,11.3488326 Z M130,14.5451573 L130,17.5730168 C130,19.7074096 129.601844,21.1483879 128.805532,21.8899353 C128.006227,22.6329867 126.513891,23 124.327027,23 L110.67447,23 C108.487606,23 106.993773,22.6329867 106.197461,21.8884311 C105.398156,21.1468838 105,19.7028971 105,17.5624877 L105,5.43901641 C105,3.29860702 105.398156,1.85913282 106.197461,1.11608136 C106.993773,0.373029887 108.487606,0 110.67447,0 L124.327027,0 C126.513891,0 128.006227,0.373029887 128.805532,1.11758551 C129.601844,1.86063698 130,3.30462363 130,5.44202472 L130,14.5451573 L130,14.5451573 Z" id="Fill-3"></path>
                    <polyline id="Fill-4" points="87 10.9992558 89.2507251 15 93.7521753 15 96 10.9992558 93.7507251 7 89.2507251 7 87 10.9992558"></polyline>
                    <path d="M16.6499666,5.11612397 L6.40978928,5.11612397 L6.40978928,9.48031908 L16.6499666,9.48031908 C17.3574422,9.48031908 17.8508532,9.41715706 18.1301998,9.29083301 C18.5097468,9.09984308 18.6995203,8.72688636 18.6995203,8.17497058 L18.6995203,6.42297633 C18.6995203,5.87106055 18.5097468,5.49960769 18.1301998,5.30861776 C17.8508532,5.18078985 17.3574422,5.11612397 16.6499666,5.11612397 Z M0,23 L0,0 L19.1413129,0 C23.2085383,0 25,1.84824114 25,4.6243625 L25,9.97358441 C25,12.5632274 23.4423392,14.596443 19.1428311,14.596443 L6.40978928,14.596443 L6.40978928,23 L0,23 L0,23 Z" id="Fill-5"></path>
                    <path d="M42.3438982,5.11612397 L32.2822138,5.11612397 L32.2822138,9.48031908 L42.3438982,9.48031908 C43.0389389,9.48031908 43.5236776,9.41715706 43.7981143,9.29083301 C44.1694987,9.09984308 44.3559367,8.72688636 44.3559367,8.17497058 L44.3559367,6.42297633 C44.3559367,5.87106055 44.1694987,5.49960769 43.7981143,5.30861776 C43.5236776,5.18078985 43.0389389,5.11612397 42.3438982,5.11612397 Z M26,23 L26,0 L44.7884728,0 C48.7857029,0 50.5456773,1.84824114 50.5456773,4.6243625 L50.5456773,9.97358441 C50.5456773,12.5632274 49.0153944,14.596443 44.7929473,14.596443 L44.0143824,14.596443 L54,23 L44.7735578,23 L35.915517,14.596443 L32.2822138,14.596443 L32.2822138,23 L26,23 L26,23 Z" id="Fill-6"></path>
                    <path d="M148.342407,5.11612397 L138.282214,5.11612397 L138.282214,9.48031908 L148.342407,9.48031908 C149.038939,9.48031908 149.522186,9.41715706 149.796623,9.29083301 C150.169499,9.09984308 150.355937,8.72688636 150.355937,8.17497058 L150.355937,6.42297633 C150.355937,5.87106055 150.169499,5.49960769 149.796623,5.30861776 C149.522186,5.18078985 149.038939,5.11612397 148.342407,5.11612397 Z M132,23 L132,0 L150.789964,0 C154.785703,0 156.544186,1.84824114 156.544186,4.6243625 L156.544186,9.97358441 C156.544186,12.5632274 155.015394,14.596443 150.791456,14.596443 L150.012891,14.596443 L160,23 L150.773558,23 L141.915517,14.596443 L138.282214,14.596443 L138.282214,23 L132,23 L132,23 Z" id="Fill-7"></path>
                    <polyline id="Fill-8" points="158 23 158 0 181.801968 0 181.801968 5.06198509 164.490892 5.06198509 164.490892 8.53740029 174.579879 8.53740029 174.579879 13.5858507 164.490892 13.5858507 164.490892 17.5936315 182 17.5936315 182 23 158 23"></polyline>
                    <path d="M185.135979,2.37861186 L185.402976,2.37861186 C185.715203,2.37861186 185.96761,2.27286268 185.96761,2.01519214 C185.96761,1.78879952 185.804202,1.63687817 185.448205,1.63687817 C185.299387,1.63687817 185.195798,1.65177242 185.135979,1.66666667 L185.135979,2.37861186 Z M185.121389,3.78760798 L184.556755,3.78760798 L184.556755,1.30324695 C184.779982,1.25856419 185.09075,1.22728627 185.491975,1.22728627 C185.951561,1.22728627 186.160198,1.30324695 186.338197,1.40899613 C186.470966,1.51623473 186.574555,1.71283884 186.574555,1.95412571 C186.574555,2.22817992 186.367377,2.43967828 186.071199,2.53053321 L186.071199,2.56181114 C186.307558,2.65117665 186.441786,2.83437593 186.516195,3.16651772 C186.590604,3.54632112 186.634374,3.69675305 186.694193,3.78760798 L186.085789,3.78760798 C186.01138,3.69675305 185.96761,3.47036044 185.891742,3.1829014 C185.849431,2.91033661 185.700613,2.78820375 185.388386,2.78820375 L185.121389,2.78820375 L185.121389,3.78760798 Z M183.621535,2.48585046 C183.621535,3.59100387 184.423986,4.46976467 185.521156,4.46976467 C186.590604,4.46976467 187.377006,3.59100387 187.377006,2.50074471 C187.377006,1.39410188 186.590604,0.500446828 185.506566,0.500446828 C184.423986,0.500446828 183.621535,1.39410188 183.621535,2.48585046 Z M188,2.48585046 C188,3.89484659 186.91742,5 185.506566,5 C184.11176,5 183,3.89484659 183,2.48585046 C183,1.10664284 184.11176,0 185.506566,0 C186.91742,0 188,1.10664284 188,2.48585046 L188,2.48585046 Z" id="Fill-9"></path>
                </g>
            </g>
        </g>
    </g>
</svg>