<?xml version="1.0" encoding="UTF-8"?>
<svg width="189px" height="35px" viewBox="0 0 189 35" version="1.1" xmlns="http://www.w3.org/2000/svg" xmlns:xlink="http://www.w3.org/1999/xlink">
    <title>brand_powerfleet</title>
    <defs>
        <polygon id="path-1" points="0 0 6 0 6 6 0 6"></polygon>
        <polygon id="path-3" points="0 0 35 0 35 35 0 35"></polygon>
    </defs>
    <g id="Layout" stroke="none" stroke-width="1" fill="none" fill-rule="evenodd">
        <g id="Home---Desktop-HD" transform="translate(-93.000000, -910.000000)">
            <g id="Customers" transform="translate(93.000000, 873.000000)">
                <g id="brand_powerfleet" transform="translate(0.000000, 37.000000)">
                    <path d="M51.3066423,17.0588373 C52.5870963,17.0588373 53.3331482,16.1249305 53.3331482,15.1109746 C53.3331482,14.0964627 52.5870963,13.162556 51.3066423,13.162556 L48.6668518,13.162556 L48.6668518,17.0588373 L51.3066423,17.0588373 Z M44,9 L51.5199587,9 C55.7335132,9 58,11.9885017 58,15.1109746 C58,18.2328915 55.7335132,21.2213933 51.5199587,21.2213933 L48.6668518,21.2213933 L48.6668518,28 L44,28 L44,9 Z" id="Fill-1" fill="#757571"></path>
                    <path d="M67.1381493,23.5543141 C67.6812284,22.9816302 67.7588111,21.945345 67.7588111,20.5 C67.7588111,19.0540868 67.6812284,18.0183698 67.1381493,17.4456859 C66.8795403,17.1729793 66.5174875,17.0360579 66.0002694,17.0360579 C65.4830512,17.0360579 65.1209985,17.1729793 64.8618507,17.4456859 C64.3193104,18.0183698 64.2411889,19.0540868 64.2411889,20.5 C64.2411889,21.945345 64.3193104,22.9816302 64.8618507,23.5543141 C65.1209985,23.8270207 65.4830512,23.9639421 66.0002694,23.9639421 C66.5174875,23.9639421 66.8795403,23.8270207 67.1381493,23.5543141 M61.5257936,26.1183244 C60.3620527,24.7814938 60,23.3906901 60,20.5 C60,17.6360124 60.3620527,16.217938 61.5257936,14.8816756 C62.3533426,13.9544731 63.7498316,13 66.0002694,13 C68.2501684,13 69.6466574,13.9544731 70.4742064,14.8816756 C71.6384861,16.217938 72,17.6360124 72,20.5 C72,23.3906901 71.6384861,24.7814938 70.4742064,26.1183244 C69.6466574,27.0455269 68.2501684,28 66.0002694,28 C63.7498316,28 62.3533426,27.0455269 61.5257936,26.1183244" id="Fill-3" fill="#757571"></path>
                    <polygon id="Fill-5" fill="#757571" points="72 13 76.65788 13 78.4615816 20.7787888 80.9652271 13 84.0347729 13 86.5384184 20.7787888 88.3426809 13 93 13 88.638811 28 85.1116096 28 82.5002804 19.7751491 79.8883904 28 76.361189 28"></polygon>
                    <path d="M102.63994,18.9726167 C102.63994,18.6181116 102.586112,18.2363368 102.397714,17.8272924 C102.128575,17.2273605 101.536468,16.681968 100.486823,16.681968 C99.4366185,16.681968 98.8445115,17.2273605 98.5759327,17.8272924 C98.3869743,18.2363368 98.3331464,18.6181116 98.3331464,18.9726167 L102.63994,18.9726167 Z M94,20.4997159 C94,15.7002613 96.691956,13 100.486823,13 C104.6854,13 107,16.0547665 107,20.0906715 L107,21.9450062 L98.3331464,21.9450062 C98.3331464,23.145438 99.2482208,24.2362232 100.890533,24.2362232 C102.424628,24.2362232 103.097477,23.7999091 103.877981,23.0085218 L106.51611,25.6815135 C105.035281,27.181343 103.582489,28 100.890533,28 C97.6872116,28 94,26.8268379 94,20.4997159 L94,20.4997159 Z" id="Fill-7" fill="#757571"></path>
                    <path d="M108,13.1654285 L112.649281,13.1654285 L112.649281,14.3785709 C113.345977,13.7168569 114.712131,13 116.339168,13 C117.879042,13 118.924994,13.3584284 120,14.3785709 L116.397276,17.8531439 C115.931803,17.4120012 115.496595,17.0805698 114.683077,17.0805698 C114.043279,17.0805698 112.764893,17.4389982 112.764893,19.1208547 L112.764893,28 L108,28 L108,13.1654285 Z" id="Fill-9" fill="#757571"></path>
                    <polygon id="Fill-11" fill="#757571" points="121 9 134 9 134 13.162556 125.700568 13.162556 125.700568 16.4984932 132.791426 16.4984932 132.791426 20.6616051 125.700568 20.6616051 125.700568 28 121 28"></polygon>
                    <path d="M140.602181,28 C137.322618,28 136,25.7313848 136,23.756839 L136,9 L140.519518,9 L140.519518,23.4366424 C140.519518,23.9969865 140.822618,24.3171831 141.428817,24.3171831 L143,24.3171831 L143,28 L140.602181,28 Z" id="Fill-13" fill="#757571"></path>
                    <path d="M151.63994,18.9726167 C151.63994,18.6181116 151.586112,18.2363368 151.397714,17.8272924 C151.128575,17.2273605 150.536468,16.681968 149.486823,16.681968 C148.437179,16.681968 147.844512,17.2273605 147.575372,17.8272924 C147.386974,18.2363368 147.333146,18.6181116 147.333146,18.9726167 L151.63994,18.9726167 Z M143,20.4997159 C143,15.7002613 145.691956,13 149.486823,13 C153.6854,13 156,16.0547665 156,20.0906715 L156,21.9450062 L147.333146,21.9450062 C147.333146,23.145438 148.248221,24.2362232 149.890533,24.2362232 C151.424628,24.2362232 152.097477,23.7999091 152.877981,23.0085218 L155.51611,25.6815135 C154.035281,27.181343 152.582489,28 149.890533,28 C146.687212,28 143,26.8268379 143,20.4997159 L143,20.4997159 Z" id="Fill-15" fill="#757571"></path>
                    <path d="M166.63994,18.9726167 C166.63994,18.6181116 166.586112,18.2363368 166.397714,17.8272924 C166.128575,17.2273605 165.536468,16.681968 164.486823,16.681968 C163.436619,16.681968 162.844512,17.2273605 162.575933,17.8272924 C162.386974,18.2363368 162.333146,18.6181116 162.333146,18.9726167 L166.63994,18.9726167 Z M158,20.4997159 C158,15.7002613 160.691956,13 164.486823,13 C168.6854,13 171,16.0547665 171,20.0906715 L171,21.9450062 L162.333146,21.9450062 C162.333146,23.145438 163.248221,24.2362232 164.890533,24.2362232 C166.424628,24.2362232 167.097477,23.7999091 167.877981,23.0085218 L170.51611,25.6815135 C169.035281,27.181343 167.582489,28 164.890533,28 C161.687212,28 158,26.8268379 158,20.4997159 L158,20.4997159 Z" id="Fill-17" fill="#757571"></path>
                    <path d="M177.798812,29 C174.603845,29 173.315344,26.7194747 173.315344,24.7345627 L173.315344,18.5110366 L172,18.5110366 L172,15.1313216 L173.315344,15.1313216 L173.315344,11 L177.717721,11 L177.717721,15.1313216 L180,15.1313216 L180,18.5110366 L177.717721,18.5110366 L177.717721,24.4126851 C177.717721,24.9759709 178.013562,25.2978486 178.603565,25.2978486 L180,25.2978486 L180,29 L177.798812,29 Z" id="Fill-19" fill="#757571"></path>
                    <g id="Group-23" transform="translate(183.000000, 10.000000)">
                        <mask id="mask-2" fill="white">
                            <use xlink:href="#path-1"></use>
                        </mask>
                        <g id="Clip-22"></g>
                        <path d="M3.09086248,2.90889371 C3.45585046,2.90889371 3.7125843,2.6687044 3.7125843,2.3368172 C3.7125843,2.00552159 3.45585046,1.75704989 3.09086248,1.75704989 L2.47860551,1.75704989 L2.47860551,2.90889371 L3.09086248,2.90889371 Z M2.02192688,1.35062118 L3.1405529,1.35062118 C3.7125843,1.35062118 4.17695311,1.78189706 4.17695311,2.3368172 C4.17695311,2.81778742 3.87881058,3.11595346 3.47241393,3.24018931 L4.26036203,4.64050483 L3.72973932,4.64050483 L2.97550972,3.29816604 L2.47860551,3.29816604 L2.47860551,4.64050483 L2.02192688,4.64050483 L2.02192688,1.35062118 Z M5.52746776,3 C5.52746776,1.59081049 4.39168671,0.439558273 3.00094648,0.439558273 C1.6084316,0.439558273 0.480932287,1.59081049 0.480932287,3 C0.480932287,4.40859791 1.6084316,5.56044173 3.00094648,5.56044173 C4.39168671,5.56044173 5.52746776,4.40859791 5.52746776,3 L5.52746776,3 Z M0,3 C0,1.34293039 1.34282447,0 3.00094648,0 C4.65729384,0 6.00011831,1.34293039 6.00011831,3 C6.00011831,4.65766121 4.65729384,6 3.00094648,6 C1.34282447,6 0,4.65766121 0,3 L0,3 Z" id="Fill-21" fill="#757571" mask="url(#mask-2)"></path>
                    </g>
                    <g id="Group-26">
                        <mask id="mask-4" fill="white">
                            <use xlink:href="#path-3"></use>
                        </mask>
                        <g id="Clip-25"></g>
                        <path d="M18.1221355,14.6839987 L18.1221355,35.0001695 C27.4983505,34.6712588 35,26.9650276 35,17.5000848 C35,16.5410444 34.9198228,15.6012188 34.7718902,14.6839987 L18.1221355,14.6839987 Z M15.8416024,0.064425811 C6.95492009,0.900831077 -0.000169388443,8.38609307 -0.000169388443,17.5000848 C-0.000169388443,26.6135113 6.95492009,34.0987733 15.8416024,34.9351786 L15.8416024,0.064425811 Z M18.1221355,0 C25.6881526,0.265050047 32.0328791,5.33264871 34.2004865,12.2539023 L18.1221355,12.2539023 L18.1221355,0 Z" id="Fill-24" fill="#757571" mask="url(#mask-4)"></path>
                    </g>
                </g>
            </g>
        </g>
    </g>
</svg>